<svg width="120" height="104" viewBox="0 0 120 104" fill="none" xmlns="http://www.w3.org/2000/svg">
<g id="icon/topaz">
<path id="Union" fill-rule="evenodd" clip-rule="evenodd" d="M60.5006 0.0477284C60.1104 -0.0164932 59.7123 -0.0159003 59.3223 0.0494839L25.1284 5.78213C24.318 5.91799 23.5784 6.32738 23.0325 6.94227L0.909199 31.8621C-0.289709 33.2125 -0.304575 35.2431 0.874431 36.611L57.1909 101.951C58.6254 103.615 61.201 103.617 62.6378 101.954L119.122 36.6019C120.295 35.245 120.292 33.2309 119.116 31.8774L97.4649 6.97101C96.9146 6.33792 96.1608 5.917 95.3336 5.78086L60.5006 0.0477284ZM59.3282 4.01877C59.7182 3.95338 60.1163 3.95279 60.5065 4.01701L91.5232 9.12201L82.8944 17.7615H37.4288L28.9141 9.11773L59.3282 4.01877ZM24.953 10.673L6.1079 31.9002C5.76544 32.286 5.51958 32.7272 5.37057 33.1927L23.6195 38.117L34.207 20.0671L24.953 10.673ZM37.798 21.6773L27.9406 38.4825H91.9693L82.6447 21.6773H37.798ZM86.1885 20.0011L96.2021 38.048L114.676 33.2338C114.534 32.7488 114.287 32.2875 113.937 31.8848L95.5014 10.6766L86.1885 20.0011ZM91.5422 42.3983H28.2679L56.6462 92.2216C58.0242 94.6408 61.505 94.6477 62.8926 92.2341L91.5422 42.3983ZM23.6604 42.1835L6.95874 37.6767L49.7184 87.2874L23.6604 42.1835ZM69.3481 88.2066L96.2164 42.0905L112.983 37.7211L69.3481 88.2066Z" fill="url(#paint0_linear_164_3559)"/>
</g>
<defs>
<linearGradient id="paint0_linear_164_3559" x1="60.0765" y1="-3.67748e-08" x2="60.0765" y2="110.311" gradientUnits="userSpaceOnUse">
<stop stop-color="#CBD3EC"/>
<stop offset="1" stop-color="#3B56B5"/>
</linearGradient>
</defs>
</svg>
