<svg width="32" height="32" viewBox="0 0 32 32" fill="none" xmlns="http://www.w3.org/2000/svg">
<path d="M28.6667 24.667C29.0347 24.667 29.3335 24.965 29.3337 25.333C29.3337 25.7012 29.0349 26 28.6667 26H3.33366C2.96547 26 2.66667 25.7012 2.66667 25.333C2.66684 24.965 2.96558 24.667 3.33366 24.667H28.6667ZM28.6667 15.333C29.0349 15.333 29.3337 15.6318 29.3337 16C29.3337 16.3682 29.0349 16.667 28.6667 16.667H3.33366C2.96547 16.667 2.66667 16.3682 2.66667 16C2.66667 15.6318 2.96547 15.333 3.33366 15.333H28.6667ZM28.6667 6C29.0349 6 29.3337 6.2988 29.3337 6.66699C29.3335 7.03503 29.0347 7.33301 28.6667 7.33301H3.33366C2.96558 7.33301 2.66684 7.03503 2.66667 6.66699C2.66667 6.2988 2.96547 6 3.33366 6H28.6667Z" fill="#273E8E"/>
</svg>
