<svg width="32" height="32" viewBox="0 0 32 32" fill="none" xmlns="http://www.w3.org/2000/svg">
<g id="icon/24x24/app_settings_outlined">
<path id="shape" fill-rule="evenodd" clip-rule="evenodd" d="M3.33336 6C2.96517 6 2.66669 6.29848 2.66669 6.66667C2.66669 7.03486 2.96517 7.33333 3.33336 7.33333H28.6667C29.0349 7.33333 29.3334 7.03486 29.3334 6.66667C29.3334 6.29848 29.0349 6 28.6667 6H3.33336ZM2.66669 16C2.66669 15.6318 2.96516 15.3333 3.33335 15.3333H28.6667C29.0349 15.3333 29.3334 15.6318 29.3334 16C29.3334 16.3682 29.0349 16.6667 28.6667 16.6667H3.33335C2.96516 16.6667 2.66669 16.3682 2.66669 16ZM2.66669 25.3333C2.66669 24.9651 2.96516 24.6667 3.33335 24.6667H28.6667C29.0349 24.6667 29.3334 24.9651 29.3334 25.3333C29.3334 25.7015 29.0349 26 28.6667 26H3.33335C2.96516 26 2.66669 25.7015 2.66669 25.3333Z" fill="white"/>
</g>
</svg>
