<svg width="32" height="32" viewBox="0 0 32 32" fill="none" xmlns="http://www.w3.org/2000/svg">
<mask id="path-1-outside-1_1415_5634" maskUnits="userSpaceOnUse" x="-0.500076" y="14.1305" width="17" height="13" fill="black">
<rect fill="white" x="-0.500076" y="14.1305" width="17" height="13"/>
<path d="M7.12199 16.1647H2.56926C1.99793 16.1647 1.5341 16.6285 1.5341 17.1998V24.8004C1.5341 25.3717 1.99793 25.8356 2.56926 25.8356H14.0829C14.6543 25.8356 15.1181 25.3717 15.1181 24.8004V23.8571H16.1523V24.8004L16.1415 25.0123C16.0426 25.986 15.2685 26.7601 14.2948 26.859L14.0829 26.8698H2.56926L2.35735 26.859C1.31406 26.753 0.499924 25.8717 0.499924 24.8004V17.1998C0.499924 16.1286 1.31406 15.2472 2.35735 15.1412L2.56926 15.1305H7.12199V16.1647ZM14.0829 15.1305C15.2256 15.1305 16.1523 16.0572 16.1523 17.1998V20.7535H15.1181V17.1998C15.1181 16.6285 14.6543 16.1647 14.0829 16.1647H10.2255V15.1305H14.0829Z"/>
</mask>
<path d="M7.12199 16.1647H2.56926C1.99793 16.1647 1.5341 16.6285 1.5341 17.1998V24.8004C1.5341 25.3717 1.99793 25.8356 2.56926 25.8356H14.0829C14.6543 25.8356 15.1181 25.3717 15.1181 24.8004V23.8571H16.1523V24.8004L16.1415 25.0123C16.0426 25.986 15.2685 26.7601 14.2948 26.859L14.0829 26.8698H2.56926L2.35735 26.859C1.31406 26.753 0.499924 25.8717 0.499924 24.8004V17.1998C0.499924 16.1286 1.31406 15.2472 2.35735 15.1412L2.56926 15.1305H7.12199V16.1647ZM14.0829 15.1305C15.2256 15.1305 16.1523 16.0572 16.1523 17.1998V20.7535H15.1181V17.1998C15.1181 16.6285 14.6543 16.1647 14.0829 16.1647H10.2255V15.1305H14.0829Z" fill="#273E8E"/>
<path d="M7.12199 16.1647V16.2647H7.22199V16.1647H7.12199ZM15.1181 23.8571V23.7571H15.0181V23.8571H15.1181ZM16.1523 23.8571H16.2523V23.7571H16.1523V23.8571ZM16.1523 24.8004L16.2523 24.8055V24.8004H16.1523ZM16.1415 25.0123L16.2411 25.0224L16.2414 25.0174L16.1415 25.0123ZM14.2948 26.859L14.2999 26.959L14.305 26.9585L14.2948 26.859ZM14.0829 26.8698V26.9699L14.088 26.9696L14.0829 26.8698ZM2.56926 26.8698L2.56419 26.9698H2.56926V26.8698ZM2.35735 26.859L2.34723 26.9586L2.35228 26.9589L2.35735 26.859ZM2.35735 15.1412L2.35228 15.0412L2.34724 15.0417L2.35735 15.1412ZM2.56926 15.1305V15.0304L2.5642 15.0306L2.56926 15.1305ZM7.12199 15.1305H7.22199V15.0305H7.12199V15.1305ZM16.1523 20.7535V20.8535H16.2523V20.7535H16.1523ZM15.1181 20.7535H15.0181V20.8535H15.1181V20.7535ZM10.2255 16.1647H10.1255V16.2647H10.2255V16.1647ZM10.2255 15.1305V15.0305H10.1255V15.1305H10.2255ZM7.12199 16.1647V16.0647H2.56926V16.1647V16.2647H7.12199V16.1647ZM2.56926 16.1647V16.0647C1.9427 16.0647 1.4341 16.5733 1.4341 17.1998H1.5341H1.6341C1.6341 16.6837 2.05316 16.2647 2.56926 16.2647V16.1647ZM1.5341 17.1998H1.4341V24.8004H1.5341H1.6341V17.1998H1.5341ZM1.5341 24.8004H1.4341C1.4341 25.427 1.9427 25.9356 2.56926 25.9356V25.8356V25.7356C2.05316 25.7356 1.6341 25.3165 1.6341 24.8004H1.5341ZM2.56926 25.8356V25.9356H14.0829V25.8356V25.7356H2.56926V25.8356ZM14.0829 25.8356V25.9356C14.7095 25.9356 15.2181 25.427 15.2181 24.8004H15.1181H15.0181C15.0181 25.3165 14.599 25.7356 14.0829 25.7356V25.8356ZM15.1181 24.8004H15.2181V23.8571H15.1181H15.0181V24.8004H15.1181ZM15.1181 23.8571V23.9571H16.1523V23.8571V23.7571H15.1181V23.8571ZM16.1523 23.8571H16.0523V24.8004H16.1523H16.2523V23.8571H16.1523ZM16.1523 24.8004L16.0524 24.7954L16.0417 25.0073L16.1415 25.0123L16.2414 25.0174L16.2521 24.8055L16.1523 24.8004ZM16.1415 25.0123L16.042 25.0022C15.9479 25.9287 15.2112 26.6654 14.2847 26.7595L14.2948 26.859L14.305 26.9585C15.3259 26.8548 16.1373 26.0433 16.241 25.0224L16.1415 25.0123ZM14.2948 26.859L14.2898 26.7591L14.0779 26.7699L14.0829 26.8698L14.088 26.9696L14.2999 26.9589L14.2948 26.859ZM14.0829 26.8698V26.7698H2.56926V26.8698V26.9698H14.0829V26.8698ZM2.56926 26.8698L2.57432 26.7699L2.36241 26.7591L2.35735 26.859L2.35228 26.9589L2.5642 26.9696L2.56926 26.8698ZM2.35735 26.859L2.36745 26.7595C1.37471 26.6587 0.599924 25.8198 0.599924 24.8004H0.499924H0.399924C0.399924 25.9235 1.2534 26.8474 2.34724 26.9585L2.35735 26.859ZM0.499924 24.8004H0.599924V17.1998H0.499924H0.399924V24.8004H0.499924ZM0.499924 17.1998H0.599924C0.599924 16.1804 1.37472 15.3416 2.36745 15.2407L2.35735 15.1412L2.34724 15.0417C1.25341 15.1528 0.399924 16.0768 0.399924 17.1998H0.499924ZM2.35735 15.1412L2.36241 15.2411L2.57432 15.2304L2.56926 15.1305L2.5642 15.0306L2.35228 15.0414L2.35735 15.1412ZM2.56926 15.1305V15.2305H7.12199V15.1305V15.0305H2.56926V15.1305ZM7.12199 15.1305H7.02199V16.1647H7.12199H7.22199V15.1305H7.12199ZM14.0829 15.1305V15.2305C15.1704 15.2305 16.0523 16.1124 16.0523 17.1998H16.1523H16.2523C16.2523 16.0019 15.2808 15.0305 14.0829 15.0305V15.1305ZM16.1523 17.1998H16.0523V20.7535H16.1523H16.2523V17.1998H16.1523ZM16.1523 20.7535V20.6535H15.1181V20.7535V20.8535H16.1523V20.7535ZM15.1181 20.7535H15.2181V17.1998H15.1181H15.0181V20.7535H15.1181ZM15.1181 17.1998H15.2181C15.2181 16.5733 14.7095 16.0647 14.0829 16.0647V16.1647V16.2647C14.599 16.2647 15.0181 16.6837 15.0181 17.1998H15.1181ZM14.0829 16.1647V16.0647H10.2255V16.1647V16.2647H14.0829V16.1647ZM10.2255 16.1647H10.3255V15.1305H10.2255H10.1255V16.1647H10.2255ZM10.2255 15.1305V15.2305H14.0829V15.1305V15.0305H10.2255V15.1305Z" fill="#273E8E" mask="url(#path-1-outside-1_1415_5634)"/>
<rect x="8.64648" y="6.625" width="22.2284" height="15.7066" rx="1.44398" stroke="#273E8E" stroke-width="1.25"/>
<path d="M20.6235 15.9929C20.3794 16.237 20.3794 16.6327 20.6235 16.8768C20.8676 17.1208 21.2633 17.1208 21.5074 16.8768L21.0654 16.4348L20.6235 15.9929ZM28.2122 9.91304C28.2122 9.56786 27.9324 9.28804 27.5872 9.28804L21.9622 9.28804C21.617 9.28804 21.3372 9.56786 21.3372 9.91304C21.3372 10.2582 21.617 10.538 21.9622 10.538H26.9622V15.538C26.9622 15.8832 27.242 16.163 27.5872 16.163C27.9324 16.163 28.2122 15.8832 28.2122 15.538L28.2122 9.91304ZM21.0654 16.4348L21.5074 16.8768L28.0291 10.355L27.5872 9.91304L27.1453 9.4711L20.6235 15.9929L21.0654 16.4348Z" fill="#273E8E"/>
</svg>
