<svg width="33" height="32" viewBox="0 0 33 32" fill="none" xmlns="http://www.w3.org/2000/svg">
<g id="icon/fullscreen">
<path id="Rectangle 1186 (Stroke)" fill-rule="evenodd" clip-rule="evenodd" d="M3.66669 5.6C3.66669 4.16406 4.83075 3 6.26669 3H10.6V4.73333H6.26669C5.78804 4.73333 5.40002 5.12135 5.40002 5.6V9.93333H3.66669V5.6ZM27.0667 4.73333H22.7334V3H27.0667C28.5026 3 29.6667 4.16406 29.6667 5.6V9.93333H27.9334V5.6C27.9334 5.12135 27.5453 4.73333 27.0667 4.73333ZM5.40002 22.0667V26.4C5.40002 26.8786 5.78804 27.2667 6.26669 27.2667H10.6V29H6.26669C4.83075 29 3.66669 27.8359 3.66669 26.4V22.0667H5.40002ZM27.9334 26.4V22.0667H29.6667V26.4C29.6667 27.8359 28.5026 29 27.0667 29H22.7334V27.2667H27.0667C27.5453 27.2667 27.9334 26.8786 27.9334 26.4Z" fill="white"/>
</g>
</svg>
