<svg width="24" height="24" viewBox="0 0 24 24" fill="none" xmlns="http://www.w3.org/2000/svg">
<path d="M11.9004 0.5C14.3067 0.500065 16.2324 1.09728 17.5791 2.74512C18.9477 4.41973 19.7998 7.27467 19.7998 11.9863C19.7998 16.7121 18.9469 19.5739 17.5781 21.252C16.2314 22.9027 14.3064 23.4999 11.9004 23.5C9.4941 23.5 7.56849 22.9025 6.22168 21.2549C4.85305 19.5803 4 16.7254 4 12.0137C4.00005 7.28786 4.85289 4.42612 6.22168 2.74805C7.56849 1.09717 9.49417 0.5 11.9004 0.5Z" stroke="#273E8E"/>
<path d="M7.7002 8.15999L16.1002 15.36L11.3002 19.2V4.79999L16.1002 8.63999L7.7002 15.84" stroke="#273E8E" stroke-linecap="round" stroke-linejoin="round"/>
</svg>
