<svg width="32" height="32" viewBox="0 0 32 32" fill="none" xmlns="http://www.w3.org/2000/svg">
<mask id="path-1-outside-1_1222_17070" maskUnits="userSpaceOnUse" x="15.5" y="14.1305" width="17" height="13" fill="black">
<rect fill="white" x="15.5" y="14.1305" width="17" height="13"/>
<path d="M24.8779 16.1646H29.4307C30.002 16.1646 30.4658 16.6285 30.4658 17.1998V24.8004C30.4658 25.3717 30.002 25.8355 29.4307 25.8355H17.917C17.3457 25.8355 16.8818 25.3717 16.8818 24.8004V23.857H15.8477V24.8004L15.8584 25.0123C15.9573 25.986 16.7314 26.7601 17.7051 26.859L17.917 26.8697H29.4307L29.6426 26.859C30.6859 26.753 31.5 25.8716 31.5 24.8004V17.1998C31.5 16.1286 30.6859 15.2472 29.6426 15.1412L29.4307 15.1305H24.8779V16.1646ZM17.917 15.1305C16.7743 15.1305 15.8477 16.0571 15.8477 17.1998V20.7535H16.8818V17.1998C16.8818 16.6285 17.3457 16.1646 17.917 16.1646H21.7744V15.1305H17.917Z"/>
</mask>
<path d="M24.8779 16.1646H29.4307C30.002 16.1646 30.4658 16.6285 30.4658 17.1998V24.8004C30.4658 25.3717 30.002 25.8355 29.4307 25.8355H17.917C17.3457 25.8355 16.8818 25.3717 16.8818 24.8004V23.857H15.8477V24.8004L15.8584 25.0123C15.9573 25.986 16.7314 26.7601 17.7051 26.859L17.917 26.8697H29.4307L29.6426 26.859C30.6859 26.753 31.5 25.8716 31.5 24.8004V17.1998C31.5 16.1286 30.6859 15.2472 29.6426 15.1412L29.4307 15.1305H24.8779V16.1646ZM17.917 15.1305C16.7743 15.1305 15.8477 16.0571 15.8477 17.1998V20.7535H16.8818V17.1998C16.8818 16.6285 17.3457 16.1646 17.917 16.1646H21.7744V15.1305H17.917Z" fill="#273E8E"/>
<path d="M24.8779 16.1646V16.2646H24.7779V16.1646H24.8779ZM16.8818 23.857V23.757H16.9818V23.857H16.8818ZM15.8477 23.857H15.7477V23.757H15.8477V23.857ZM15.8477 24.8004L15.7477 24.8055V24.8004H15.8477ZM15.8584 25.0123L15.7588 25.0224L15.7585 25.0174L15.8584 25.0123ZM17.7051 26.859L17.7 26.959L17.695 26.9585L17.7051 26.859ZM17.917 26.8697V26.9699L17.9119 26.9696L17.917 26.8697ZM29.4307 26.8697L29.4357 26.9697H29.4307V26.8697ZM29.6426 26.859L29.6527 26.9586L29.6476 26.9589L29.6426 26.859ZM29.6426 15.1412L29.6476 15.0412L29.6527 15.0417L29.6426 15.1412ZM29.4307 15.1305V15.0303L29.4357 15.0306L29.4307 15.1305ZM24.8779 15.1305H24.7779V15.0305H24.8779V15.1305ZM15.8477 20.7535V20.8535H15.7477V20.7535H15.8477ZM16.8818 20.7535H16.9818V20.8535H16.8818V20.7535ZM21.7744 16.1646H21.8744V16.2646H21.7744V16.1646ZM21.7744 15.1305V15.0305H21.8744V15.1305H21.7744ZM24.8779 16.1646V16.0646H29.4307V16.1646V16.2646H24.8779V16.1646ZM29.4307 16.1646V16.0646C30.0572 16.0646 30.5658 16.5732 30.5658 17.1998H30.4658H30.3658C30.3658 16.6837 29.9468 16.2646 29.4307 16.2646V16.1646ZM30.4658 17.1998H30.5658V24.8004H30.4658H30.3658V17.1998H30.4658ZM30.4658 24.8004H30.5658C30.5658 25.427 30.0572 25.9355 29.4307 25.9355V25.8355V25.7355C29.9468 25.7355 30.3658 25.3165 30.3658 24.8004H30.4658ZM29.4307 25.8355V25.9355H17.917V25.8355V25.7355H29.4307V25.8355ZM17.917 25.8355V25.9355C17.2904 25.9355 16.7818 25.427 16.7818 24.8004H16.8818H16.9818C16.9818 25.3165 17.4009 25.7355 17.917 25.7355V25.8355ZM16.8818 24.8004H16.7818V23.857H16.8818H16.9818V24.8004H16.8818ZM16.8818 23.857V23.957H15.8477V23.857V23.757H16.8818V23.857ZM15.8477 23.857H15.9477V24.8004H15.8477H15.7477V23.857H15.8477ZM15.8477 24.8004L15.9475 24.7953L15.9583 25.0072L15.8584 25.0123L15.7585 25.0174L15.7478 24.8055L15.8477 24.8004ZM15.8584 25.0123L15.9579 25.0022C16.052 25.9286 16.7888 26.6654 17.7152 26.7595L17.7051 26.859L17.695 26.9585C16.6741 26.8547 15.8626 26.0433 15.7589 25.0224L15.8584 25.0123ZM17.7051 26.859L17.7101 26.7591L17.9221 26.7699L17.917 26.8697L17.9119 26.9696L17.7 26.9589L17.7051 26.859ZM17.917 26.8697V26.7697H29.4307V26.8697V26.9697H17.917V26.8697ZM29.4307 26.8697L29.4256 26.7699L29.6375 26.7591L29.6426 26.859L29.6476 26.9589L29.4357 26.9696L29.4307 26.8697ZM29.6426 26.859L29.6325 26.7595C30.6252 26.6587 31.4 25.8198 31.4 24.8004H31.5H31.6C31.6 25.9235 30.7465 26.8474 29.6527 26.9585L29.6426 26.859ZM31.5 24.8004H31.4V17.1998H31.5H31.6V24.8004H31.5ZM31.5 17.1998H31.4C31.4 16.1804 30.6252 15.3415 29.6325 15.2407L29.6426 15.1412L29.6527 15.0417C30.7465 15.1528 31.6 16.0767 31.6 17.1998H31.5ZM29.6426 15.1412L29.6375 15.2411L29.4256 15.2303L29.4307 15.1305L29.4357 15.0306L29.6476 15.0413L29.6426 15.1412ZM29.4307 15.1305V15.2305H24.8779V15.1305V15.0305H29.4307V15.1305ZM24.8779 15.1305H24.9779V16.1646H24.8779H24.7779V15.1305H24.8779ZM17.917 15.1305V15.2305C16.8296 15.2305 15.9477 16.1124 15.9477 17.1998H15.8477H15.7477C15.7477 16.0019 16.7191 15.0305 17.917 15.0305V15.1305ZM15.8477 17.1998H15.9477V20.7535H15.8477H15.7477V17.1998H15.8477ZM15.8477 20.7535V20.6535H16.8818V20.7535V20.8535H15.8477V20.7535ZM16.8818 20.7535H16.7818V17.1998H16.8818H16.9818V20.7535H16.8818ZM16.8818 17.1998H16.7818C16.7818 16.5732 17.2904 16.0646 17.917 16.0646V16.1646V16.2646C17.4009 16.2646 16.9818 16.6837 16.9818 17.1998H16.8818ZM17.917 16.1646V16.0646H21.7744V16.1646V16.2646H17.917V16.1646ZM21.7744 16.1646H21.6744V15.1305H21.7744H21.8744V16.1646H21.7744ZM21.7744 15.1305V15.2305H17.917V15.1305V15.0305H21.7744V15.1305Z" fill="#273E8E" mask="url(#path-1-outside-1_1222_17070)"/>
<rect x="-0.625" y="0.625" width="22.2284" height="15.7066" rx="1.44398" transform="matrix(-1 0 0 1 22.7285 6)" stroke="#273E8E" stroke-width="1.25"/>
<path d="M3.97066 10.355C3.72658 10.1109 3.72658 9.71518 3.97066 9.4711C4.21473 9.22702 4.61046 9.22702 4.85454 9.4711L4.4126 9.91304L3.97066 10.355ZM11.5594 16.4348C11.5594 16.78 11.2795 17.0598 10.9344 17.0598L5.30937 17.0598C4.96419 17.0598 4.68437 16.78 4.68437 16.4348C4.68437 16.0896 4.96419 15.8098 5.30937 15.8098H10.3094V10.8098C10.3094 10.4646 10.5892 10.1848 10.9344 10.1848C11.2795 10.1848 11.5594 10.4646 11.5594 10.8098L11.5594 16.4348ZM4.4126 9.91304L4.85454 9.4711L11.3763 15.9929L10.9344 16.4348L10.4924 16.8768L3.97066 10.355L4.4126 9.91304Z" fill="#273E8E"/>
</svg>
