<svg width="32" height="32" viewBox="0 0 32 32" fill="none" xmlns="http://www.w3.org/2000/svg">
<g id="icon/32x32/exit_fullscreen">
<path id="Rectangle 1186 (Stroke)" fill-rule="evenodd" clip-rule="evenodd" d="M23.6667 10.2L28 10.2L28 11.9333L23.6667 11.9333C22.2307 11.9333 21.0667 10.7693 21.0667 9.33335L21.0667 5.00002L22.8 5.00002L22.8 9.33335C22.8 9.812 23.188 10.2 23.6667 10.2Z" fill="white"/>
<path id="Rectangle 1186 (Stroke)_2" fill-rule="evenodd" clip-rule="evenodd" d="M8.33333 10.2L4 10.2L4 11.9333L8.33333 11.9333C9.76927 11.9333 10.9333 10.7693 10.9333 9.33335L10.9333 5.00002L9.2 5.00002L9.2 9.33335C9.2 9.812 8.81198 10.2 8.33333 10.2Z" fill="white"/>
<path id="Rectangle 1186 (Stroke)_3" fill-rule="evenodd" clip-rule="evenodd" d="M23.6667 21.7333L28 21.7333L28 20L23.6667 20C22.2307 20 21.0667 21.1641 21.0667 22.6L21.0667 26.9333L22.8 26.9333L22.8 22.6C22.8 22.1214 23.188 21.7333 23.6667 21.7333Z" fill="white"/>
<path id="Rectangle 1186 (Stroke)_4" fill-rule="evenodd" clip-rule="evenodd" d="M8.33333 21.7333L4 21.7333L4 20L8.33333 20C9.76927 20 10.9333 21.1641 10.9333 22.6L10.9333 26.9333L9.2 26.9333L9.2 22.6C9.2 22.1214 8.81198 21.7333 8.33333 21.7333Z" fill="white"/>
</g>
</svg>
